# xmcd
#
# Track frame offsets: 
#        150
#        17426
#        35078
#        60668
#        73570
#        92593
#        109588
#        123340
#        140285
#
# Disc length: 2203 seconds
#
# Revision: 0
# Processed by: cddbd v1.5.2PL0 Copyright (c) Steve Scherf et al.
# Submitted via: ExactAudioCopyFreeDBPlugin 1.0
#
DISCID=70089909
DTITLE=The Breeze Bros. - For Your Pleasure
DYEAR=2006
DGENRE=Country
TTITLE0=grand sea discovery
TTITLE1=wild night
TTITLE2=I can't stand the rain
TTITLE3=to be gone
TTITLE4=you keep walkin'
TTITLE5=Ruby
TTITLE6=a kiss before I go
TTITLE7=make me smile
TTITLE8=the window
EXTD=
EXTT0=
EXTT1=
EXTT2=
EXTT3=
EXTT4=
EXTT5=
EXTT6=
EXTT7=
EXTT8=
PLAYORDER=
